<?xml version="1.0" encoding="UTF-8" standalone="no"?>
<!DOCTYPE svg PUBLIC "-//W3C//DTD SVG 1.1//EN"
 "http://www.w3.org/Graphics/SVG/1.1/DTD/svg11.dtd">
<!-- Generated by graphviz version 5.0.0 (20220707.1540)
 -->
<!-- Title: dependencies Pages: 1 -->
<svg width="2147pt" height="247pt"
 viewBox="0.00 0.00 2147.00 246.80" xmlns="http://www.w3.org/2000/svg" xmlns:xlink="http://www.w3.org/1999/xlink">
<g id="graph0" class="graph" transform="scale(1 1) rotate(0) translate(4 242.8)">
<title>dependencies</title>
<polygon fill="white" stroke="transparent" points="-4,4 -4,-242.8 2143,-242.8 2143,4 -4,4"/>
<text text-anchor="middle" x="1069.5" y="-8.2" font-family="sans-serif" font-size="14.00">dependencies</text>
<g id="clust1" class="cluster">
<title>cluster_AppModule</title>
<polygon fill="none" stroke="black" stroke-dasharray="1,5" points="8,-32.8 8,-230.8 2131,-230.8 2131,-32.8 8,-32.8"/>
</g>
<g id="clust5" class="cluster">
<title>cluster_AppModule_imports</title>
<polygon fill="none" stroke="black" points="898,-40.8 898,-92.8 2123,-92.8 2123,-40.8 898,-40.8"/>
</g>
<g id="clust2" class="cluster">
<title>cluster_AppModule_declarations</title>
<polygon fill="none" stroke="black" points="630,-40.8 630,-92.8 890,-92.8 890,-40.8 630,-40.8"/>
</g>
<g id="clust7" class="cluster">
<title>cluster_AppModule_bootstrap</title>
<polygon fill="none" stroke="black" points="1195,-170.8 1195,-222.8 1319,-222.8 1319,-170.8 1195,-170.8"/>
</g>
<g id="clust8" class="cluster">
<title>cluster_AppModule_providers</title>
<polygon fill="none" stroke="black" points="16,-40.8 16,-92.8 622,-92.8 622,-40.8 16,-40.8"/>
</g>
<!-- AppComponent -->
<g id="node1" class="node">
<title>AppComponent</title>
<polygon fill="#ffffb3" stroke="black" points="881.94,-84.8 776.06,-84.8 776.06,-48.8 881.94,-48.8 881.94,-84.8"/>
<text text-anchor="middle" x="829" y="-62.6" font-family="Times,serif" font-size="14.00">AppComponent</text>
</g>
<!-- AppModule -->
<g id="node3" class="node">
<title>AppModule</title>
<polygon fill="#8dd3c7" stroke="black" points="1298.66,-149.8 1295.66,-153.8 1274.66,-153.8 1271.66,-149.8 1215.34,-149.8 1215.34,-113.8 1298.66,-113.8 1298.66,-149.8"/>
<text text-anchor="middle" x="1257" y="-127.6" font-family="Times,serif" font-size="14.00">AppModule</text>
</g>
<!-- AppComponent&#45;&gt;AppModule -->
<g id="edge1" class="edge">
<title>AppComponent&#45;&gt;AppModule</title>
<path fill="none" stroke="black" d="M829,-84.91C829,-104.14 829,-131.8 829,-131.8 829,-131.8 1205.18,-131.8 1205.18,-131.8"/>
<polygon fill="black" stroke="black" points="1205.18,-135.3 1215.18,-131.8 1205.18,-128.3 1205.18,-135.3"/>
</g>
<!-- LoaderComponent -->
<g id="node2" class="node">
<title>LoaderComponent</title>
<polygon fill="#ffffb3" stroke="black" points="758.47,-84.8 637.53,-84.8 637.53,-48.8 758.47,-48.8 758.47,-84.8"/>
<text text-anchor="middle" x="698" y="-62.6" font-family="Times,serif" font-size="14.00">LoaderComponent</text>
</g>
<!-- LoaderComponent&#45;&gt;AppModule -->
<g id="edge2" class="edge">
<title>LoaderComponent&#45;&gt;AppModule</title>
<path fill="none" stroke="black" d="M698,-85.08C698,-106.12 698,-137.8 698,-137.8 698,-137.8 1204.98,-137.8 1204.98,-137.8"/>
<polygon fill="black" stroke="black" points="1204.98,-141.3 1214.98,-137.8 1204.98,-134.3 1204.98,-141.3"/>
</g>
<!-- AppComponent  -->
<g id="node12" class="node">
<title>AppComponent </title>
<polygon fill="#80b1d3" stroke="black" points="1311.44,-214.8 1202.56,-214.8 1202.56,-178.8 1311.44,-178.8 1311.44,-214.8"/>
<text text-anchor="middle" x="1257" y="-192.6" font-family="Times,serif" font-size="14.00">AppComponent </text>
</g>
<!-- AppModule&#45;&gt;AppComponent  -->
<g id="edge11" class="edge">
<title>AppModule&#45;&gt;AppComponent </title>
<path fill="none" stroke="black" stroke-dasharray="1,5" d="M1257,-149.91C1257,-149.91 1257,-168.79 1257,-168.79"/>
<polygon fill="black" stroke="black" points="1253.5,-168.79 1257,-178.79 1260.5,-168.79 1253.5,-168.79"/>
</g>
<!-- BrowserModule -->
<g id="node4" class="node">
<title>BrowserModule</title>
<polygon fill="#8dd3c7" stroke="black" points="2115.49,-84.8 2112.49,-88.8 2091.49,-88.8 2088.49,-84.8 2008.51,-84.8 2008.51,-48.8 2115.49,-48.8 2115.49,-84.8"/>
<text text-anchor="middle" x="2062" y="-62.6" font-family="Times,serif" font-size="14.00">BrowserModule</text>
</g>
<!-- BrowserModule&#45;&gt;AppModule -->
<g id="edge3" class="edge">
<title>BrowserModule&#45;&gt;AppModule</title>
<path fill="none" stroke="black" d="M2062,-85.05C2062,-107.82 2062,-143.8 2062,-143.8 2062,-143.8 1308.87,-143.8 1308.87,-143.8"/>
<polygon fill="black" stroke="black" points="1308.87,-140.3 1298.87,-143.8 1308.87,-147.3 1308.87,-140.3"/>
</g>
<!-- AppRoutingModule -->
<g id="node5" class="node">
<title>AppRoutingModule</title>
<polygon fill="#8dd3c7" stroke="black" points="1990.28,-84.8 1987.28,-88.8 1966.28,-88.8 1963.28,-84.8 1861.72,-84.8 1861.72,-48.8 1990.28,-48.8 1990.28,-84.8"/>
<text text-anchor="middle" x="1926" y="-62.6" font-family="Times,serif" font-size="14.00">AppRoutingModule</text>
</g>
<!-- AppRoutingModule&#45;&gt;AppModule -->
<g id="edge4" class="edge">
<title>AppRoutingModule&#45;&gt;AppModule</title>
<path fill="none" stroke="black" d="M1926,-85.08C1926,-106.12 1926,-137.8 1926,-137.8 1926,-137.8 1308.85,-137.8 1308.85,-137.8"/>
<polygon fill="black" stroke="black" points="1308.85,-134.3 1298.85,-137.8 1308.85,-141.3 1308.85,-134.3"/>
</g>
<!-- BrowserAnimationsModule -->
<g id="node6" class="node">
<title>BrowserAnimationsModule</title>
<polygon fill="#8dd3c7" stroke="black" points="1843.32,-84.8 1840.32,-88.8 1819.32,-88.8 1816.32,-84.8 1670.68,-84.8 1670.68,-48.8 1843.32,-48.8 1843.32,-84.8"/>
<text text-anchor="middle" x="1757" y="-62.6" font-family="Times,serif" font-size="14.00">BrowserAnimationsModule</text>
</g>
<!-- BrowserAnimationsModule&#45;&gt;AppModule -->
<g id="edge5" class="edge">
<title>BrowserAnimationsModule&#45;&gt;AppModule</title>
<path fill="none" stroke="black" d="M1757,-84.91C1757,-104.14 1757,-131.8 1757,-131.8 1757,-131.8 1308.77,-131.8 1308.77,-131.8"/>
<polygon fill="black" stroke="black" points="1308.77,-128.3 1298.77,-131.8 1308.77,-135.3 1308.77,-128.3"/>
</g>
<!-- MatProgressSpinnerModule -->
<g id="node7" class="node">
<title>MatProgressSpinnerModule</title>
<polygon fill="#8dd3c7" stroke="black" points="1652.88,-84.8 1649.88,-88.8 1628.88,-88.8 1625.88,-84.8 1479.12,-84.8 1479.12,-48.8 1652.88,-48.8 1652.88,-84.8"/>
<text text-anchor="middle" x="1566" y="-62.6" font-family="Times,serif" font-size="14.00">MatProgressSpinnerModule</text>
</g>
<!-- MatProgressSpinnerModule&#45;&gt;AppModule -->
<g id="edge6" class="edge">
<title>MatProgressSpinnerModule&#45;&gt;AppModule</title>
<path fill="none" stroke="black" d="M1566,-84.82C1566,-102.17 1566,-125.8 1566,-125.8 1566,-125.8 1308.67,-125.8 1308.67,-125.8"/>
<polygon fill="black" stroke="black" points="1308.67,-122.3 1298.67,-125.8 1308.67,-129.3 1308.67,-122.3"/>
</g>
<!-- MatToolbarModule -->
<g id="node8" class="node">
<title>MatToolbarModule</title>
<polygon fill="#8dd3c7" stroke="black" points="1461.42,-84.8 1458.42,-88.8 1437.42,-88.8 1434.42,-84.8 1334.58,-84.8 1334.58,-48.8 1461.42,-48.8 1461.42,-84.8"/>
<text text-anchor="middle" x="1398" y="-62.6" font-family="Times,serif" font-size="14.00">MatToolbarModule</text>
</g>
<!-- MatToolbarModule&#45;&gt;AppModule -->
<g id="edge7" class="edge">
<title>MatToolbarModule&#45;&gt;AppModule</title>
<path fill="none" stroke="black" d="M1398,-85.04C1398,-100.37 1398,-119.8 1398,-119.8 1398,-119.8 1308.92,-119.8 1308.92,-119.8"/>
<polygon fill="black" stroke="black" points="1308.92,-116.3 1298.92,-119.8 1308.92,-123.3 1308.92,-116.3"/>
</g>
<!-- MatButtonModule -->
<g id="node9" class="node">
<title>MatButtonModule</title>
<polygon fill="#8dd3c7" stroke="black" points="1317.22,-84.8 1314.22,-88.8 1293.22,-88.8 1290.22,-84.8 1196.78,-84.8 1196.78,-48.8 1317.22,-48.8 1317.22,-84.8"/>
<text text-anchor="middle" x="1257" y="-62.6" font-family="Times,serif" font-size="14.00">MatButtonModule</text>
</g>
<!-- MatButtonModule&#45;&gt;AppModule -->
<g id="edge8" class="edge">
<title>MatButtonModule&#45;&gt;AppModule</title>
<path fill="none" stroke="black" d="M1257,-84.91C1257,-84.91 1257,-103.79 1257,-103.79"/>
<polygon fill="black" stroke="black" points="1253.5,-103.79 1257,-113.79 1260.5,-103.79 1253.5,-103.79"/>
</g>
<!-- HttpClientModule -->
<g id="node10" class="node">
<title>HttpClientModule</title>
<polygon fill="#8dd3c7" stroke="black" points="1179.16,-84.8 1176.16,-88.8 1155.16,-88.8 1152.16,-84.8 1060.84,-84.8 1060.84,-48.8 1179.16,-48.8 1179.16,-84.8"/>
<text text-anchor="middle" x="1120" y="-62.6" font-family="Times,serif" font-size="14.00">HttpClientModule</text>
</g>
<!-- HttpClientModule&#45;&gt;AppModule -->
<g id="edge9" class="edge">
<title>HttpClientModule&#45;&gt;AppModule</title>
<path fill="none" stroke="black" d="M1120,-85.04C1120,-100.37 1120,-119.8 1120,-119.8 1120,-119.8 1205.15,-119.8 1205.15,-119.8"/>
<polygon fill="black" stroke="black" points="1205.15,-123.3 1215.15,-119.8 1205.15,-116.3 1205.15,-123.3"/>
</g>
<!-- MatSnackBarModule -->
<g id="node11" class="node">
<title>MatSnackBarModule</title>
<polygon fill="#8dd3c7" stroke="black" points="1042.03,-84.8 1039.03,-88.8 1018.03,-88.8 1015.03,-84.8 905.97,-84.8 905.97,-48.8 1042.03,-48.8 1042.03,-84.8"/>
<text text-anchor="middle" x="974" y="-62.6" font-family="Times,serif" font-size="14.00">MatSnackBarModule</text>
</g>
<!-- MatSnackBarModule&#45;&gt;AppModule -->
<g id="edge10" class="edge">
<title>MatSnackBarModule&#45;&gt;AppModule</title>
<path fill="none" stroke="black" d="M974,-84.82C974,-102.17 974,-125.8 974,-125.8 974,-125.8 1205.24,-125.8 1205.24,-125.8"/>
<polygon fill="black" stroke="black" points="1205.24,-129.3 1215.24,-125.8 1205.24,-122.3 1205.24,-129.3"/>
</g>
<!-- { provide: HTTP_INTERCEPTORS, useClass: AuthInterceptor, multi: &#160;} -->
<g id="node13" class="node">
<title>{ provide: HTTP_INTERCEPTORS, useClass: AuthInterceptor, multi: &#160;}</title>
<ellipse fill="#fdb462" stroke="black" cx="319" cy="-66.8" rx="295.47" ry="18"/>
<text text-anchor="middle" x="319" y="-62.6" font-family="Times,serif" font-size="14.00">{ provide: HTTP_INTERCEPTORS, useClass: AuthInterceptor, multi: &#160;}</text>
</g>
<!-- { provide: HTTP_INTERCEPTORS, useClass: AuthInterceptor, multi: &#160;}&#45;&gt;AppModule -->
<g id="edge12" class="edge">
<title>{ provide: HTTP_INTERCEPTORS, useClass: AuthInterceptor, multi: &#160;}&#45;&gt;AppModule</title>
<path fill="none" stroke="black" d="M319,-85.05C319,-107.82 319,-143.8 319,-143.8 319,-143.8 1205.18,-143.8 1205.18,-143.8"/>
<polygon fill="black" stroke="black" points="1205.18,-147.3 1215.18,-143.8 1205.18,-140.3 1205.18,-147.3"/>
</g>
</g>
</svg>
