<?xml version="1.0" encoding="UTF-8" standalone="no"?>
<!DOCTYPE svg PUBLIC "-//W3C//DTD SVG 1.1//EN"
 "http://www.w3.org/Graphics/SVG/1.1/DTD/svg11.dtd">
<!-- Generated by graphviz version 5.0.0 (20220707.1540)
 -->
<!-- Title: dependencies Pages: 1 -->
<svg width="2147pt" height="247pt"
 viewBox="0.00 0.00 2147.00 246.80" xmlns="http://www.w3.org/2000/svg" xmlns:xlink="http://www.w3.org/1999/xlink">
<g id="graph0" class="graph" transform="scale(1 1) rotate(0) translate(4 242.8)">
<title>dependencies</title>
<polygon fill="white" stroke="transparent" points="-4,4 -4,-242.8 2143,-242.8 2143,4 -4,4"/>
<text text-anchor="middle" x="1069.5" y="-8.2" font-family="sans-serif" font-size="14.00">dependencies</text>
<g id="clust1" class="cluster">
<title>cluster_AppModule</title>
<polygon fill="none" stroke="black" stroke-dasharray="1,5" points="8,-32.8 8,-230.8 2131,-230.8 2131,-32.8 8,-32.8"/>
</g>
<g id="clust2" class="cluster">
<title>cluster_AppModule_declarations</title>
<polygon fill="none" stroke="black" points="1863,-40.8 1863,-92.8 2123,-92.8 2123,-40.8 1863,-40.8"/>
</g>
<g id="clust5" class="cluster">
<title>cluster_AppModule_imports</title>
<polygon fill="none" stroke="black" points="630,-40.8 630,-92.8 1855,-92.8 1855,-40.8 630,-40.8"/>
</g>
<g id="clust7" class="cluster">
<title>cluster_AppModule_bootstrap</title>
<polygon fill="none" stroke="black" points="1236,-170.8 1236,-222.8 1360,-222.8 1360,-170.8 1236,-170.8"/>
</g>
<g id="clust8" class="cluster">
<title>cluster_AppModule_providers</title>
<polygon fill="none" stroke="black" points="16,-40.8 16,-92.8 622,-92.8 622,-40.8 16,-40.8"/>
</g>
<!-- AppComponent -->
<g id="node1" class="node">
<title>AppComponent</title>
<polygon fill="#ffffb3" stroke="black" points="2114.94,-84.8 2009.06,-84.8 2009.06,-48.8 2114.94,-48.8 2114.94,-84.8"/>
<text text-anchor="middle" x="2062" y="-62.6" font-family="Times,serif" font-size="14.00">AppComponent</text>
</g>
<!-- AppModule -->
<g id="node3" class="node">
<title>AppModule</title>
<polygon fill="#8dd3c7" stroke="black" points="1339.66,-149.8 1336.66,-153.8 1315.66,-153.8 1312.66,-149.8 1256.34,-149.8 1256.34,-113.8 1339.66,-113.8 1339.66,-149.8"/>
<text text-anchor="middle" x="1298" y="-127.6" font-family="Times,serif" font-size="14.00">AppModule</text>
</g>
<!-- AppComponent&#45;&gt;AppModule -->
<g id="edge1" class="edge">
<title>AppComponent&#45;&gt;AppModule</title>
<path fill="none" stroke="black" d="M2062,-85.05C2062,-107.82 2062,-143.8 2062,-143.8 2062,-143.8 1349.89,-143.8 1349.89,-143.8"/>
<polygon fill="black" stroke="black" points="1349.89,-140.3 1339.89,-143.8 1349.89,-147.3 1349.89,-140.3"/>
</g>
<!-- LoaderComponent -->
<g id="node2" class="node">
<title>LoaderComponent</title>
<polygon fill="#ffffb3" stroke="black" points="1991.47,-84.8 1870.53,-84.8 1870.53,-48.8 1991.47,-48.8 1991.47,-84.8"/>
<text text-anchor="middle" x="1931" y="-62.6" font-family="Times,serif" font-size="14.00">LoaderComponent</text>
</g>
<!-- LoaderComponent&#45;&gt;AppModule -->
<g id="edge2" class="edge">
<title>LoaderComponent&#45;&gt;AppModule</title>
<path fill="none" stroke="black" d="M1931,-85.08C1931,-106.12 1931,-137.8 1931,-137.8 1931,-137.8 1350.02,-137.8 1350.02,-137.8"/>
<polygon fill="black" stroke="black" points="1350.02,-134.3 1340.02,-137.8 1350.02,-141.3 1350.02,-134.3"/>
</g>
<!-- AppComponent  -->
<g id="node12" class="node">
<title>AppComponent </title>
<polygon fill="#80b1d3" stroke="black" points="1352.44,-214.8 1243.56,-214.8 1243.56,-178.8 1352.44,-178.8 1352.44,-214.8"/>
<text text-anchor="middle" x="1298" y="-192.6" font-family="Times,serif" font-size="14.00">AppComponent </text>
</g>
<!-- AppModule&#45;&gt;AppComponent  -->
<g id="edge11" class="edge">
<title>AppModule&#45;&gt;AppComponent </title>
<path fill="none" stroke="black" stroke-dasharray="1,5" d="M1298,-149.91C1298,-149.91 1298,-168.79 1298,-168.79"/>
<polygon fill="black" stroke="black" points="1294.5,-168.79 1298,-178.79 1301.5,-168.79 1294.5,-168.79"/>
</g>
<!-- BrowserModule -->
<g id="node4" class="node">
<title>BrowserModule</title>
<polygon fill="#8dd3c7" stroke="black" points="1847.49,-84.8 1844.49,-88.8 1823.49,-88.8 1820.49,-84.8 1740.51,-84.8 1740.51,-48.8 1847.49,-48.8 1847.49,-84.8"/>
<text text-anchor="middle" x="1794" y="-62.6" font-family="Times,serif" font-size="14.00">BrowserModule</text>
</g>
<!-- BrowserModule&#45;&gt;AppModule -->
<g id="edge3" class="edge">
<title>BrowserModule&#45;&gt;AppModule</title>
<path fill="none" stroke="black" d="M1794,-84.91C1794,-104.14 1794,-131.8 1794,-131.8 1794,-131.8 1349.86,-131.8 1349.86,-131.8"/>
<polygon fill="black" stroke="black" points="1349.86,-128.3 1339.86,-131.8 1349.86,-135.3 1349.86,-128.3"/>
</g>
<!-- AppRoutingModule -->
<g id="node5" class="node">
<title>AppRoutingModule</title>
<polygon fill="#8dd3c7" stroke="black" points="1722.28,-84.8 1719.28,-88.8 1698.28,-88.8 1695.28,-84.8 1593.72,-84.8 1593.72,-48.8 1722.28,-48.8 1722.28,-84.8"/>
<text text-anchor="middle" x="1658" y="-62.6" font-family="Times,serif" font-size="14.00">AppRoutingModule</text>
</g>
<!-- AppRoutingModule&#45;&gt;AppModule -->
<g id="edge4" class="edge">
<title>AppRoutingModule&#45;&gt;AppModule</title>
<path fill="none" stroke="black" d="M1658,-84.82C1658,-102.17 1658,-125.8 1658,-125.8 1658,-125.8 1350,-125.8 1350,-125.8"/>
<polygon fill="black" stroke="black" points="1350,-122.3 1340,-125.8 1350,-129.3 1350,-122.3"/>
</g>
<!-- BrowserAnimationsModule -->
<g id="node6" class="node">
<title>BrowserAnimationsModule</title>
<polygon fill="#8dd3c7" stroke="black" points="1575.32,-84.8 1572.32,-88.8 1551.32,-88.8 1548.32,-84.8 1402.68,-84.8 1402.68,-48.8 1575.32,-48.8 1575.32,-84.8"/>
<text text-anchor="middle" x="1489" y="-62.6" font-family="Times,serif" font-size="14.00">BrowserAnimationsModule</text>
</g>
<!-- BrowserAnimationsModule&#45;&gt;AppModule -->
<g id="edge5" class="edge">
<title>BrowserAnimationsModule&#45;&gt;AppModule</title>
<path fill="none" stroke="black" d="M1489,-85.04C1489,-100.37 1489,-119.8 1489,-119.8 1489,-119.8 1349.92,-119.8 1349.92,-119.8"/>
<polygon fill="black" stroke="black" points="1349.92,-116.3 1339.92,-119.8 1349.92,-123.3 1349.92,-116.3"/>
</g>
<!-- MatProgressSpinnerModule -->
<g id="node7" class="node">
<title>MatProgressSpinnerModule</title>
<polygon fill="#8dd3c7" stroke="black" points="1384.88,-84.8 1381.88,-88.8 1360.88,-88.8 1357.88,-84.8 1211.12,-84.8 1211.12,-48.8 1384.88,-48.8 1384.88,-84.8"/>
<text text-anchor="middle" x="1298" y="-62.6" font-family="Times,serif" font-size="14.00">MatProgressSpinnerModule</text>
</g>
<!-- MatProgressSpinnerModule&#45;&gt;AppModule -->
<g id="edge6" class="edge">
<title>MatProgressSpinnerModule&#45;&gt;AppModule</title>
<path fill="none" stroke="black" d="M1298,-84.91C1298,-84.91 1298,-103.79 1298,-103.79"/>
<polygon fill="black" stroke="black" points="1294.5,-103.79 1298,-113.79 1301.5,-103.79 1294.5,-103.79"/>
</g>
<!-- MatToolbarModule -->
<g id="node8" class="node">
<title>MatToolbarModule</title>
<polygon fill="#8dd3c7" stroke="black" points="1193.42,-84.8 1190.42,-88.8 1169.42,-88.8 1166.42,-84.8 1066.58,-84.8 1066.58,-48.8 1193.42,-48.8 1193.42,-84.8"/>
<text text-anchor="middle" x="1130" y="-62.6" font-family="Times,serif" font-size="14.00">MatToolbarModule</text>
</g>
<!-- MatToolbarModule&#45;&gt;AppModule -->
<g id="edge7" class="edge">
<title>MatToolbarModule&#45;&gt;AppModule</title>
<path fill="none" stroke="black" d="M1130,-85.04C1130,-100.37 1130,-119.8 1130,-119.8 1130,-119.8 1246.04,-119.8 1246.04,-119.8"/>
<polygon fill="black" stroke="black" points="1246.04,-123.3 1256.04,-119.8 1246.04,-116.3 1246.04,-123.3"/>
</g>
<!-- MatButtonModule -->
<g id="node9" class="node">
<title>MatButtonModule</title>
<polygon fill="#8dd3c7" stroke="black" points="1049.22,-84.8 1046.22,-88.8 1025.22,-88.8 1022.22,-84.8 928.78,-84.8 928.78,-48.8 1049.22,-48.8 1049.22,-84.8"/>
<text text-anchor="middle" x="989" y="-62.6" font-family="Times,serif" font-size="14.00">MatButtonModule</text>
</g>
<!-- MatButtonModule&#45;&gt;AppModule -->
<g id="edge8" class="edge">
<title>MatButtonModule&#45;&gt;AppModule</title>
<path fill="none" stroke="black" d="M989,-84.82C989,-102.17 989,-125.8 989,-125.8 989,-125.8 1246.33,-125.8 1246.33,-125.8"/>
<polygon fill="black" stroke="black" points="1246.33,-129.3 1256.33,-125.8 1246.33,-122.3 1246.33,-129.3"/>
</g>
<!-- HttpClientModule -->
<g id="node10" class="node">
<title>HttpClientModule</title>
<polygon fill="#8dd3c7" stroke="black" points="911.16,-84.8 908.16,-88.8 887.16,-88.8 884.16,-84.8 792.84,-84.8 792.84,-48.8 911.16,-48.8 911.16,-84.8"/>
<text text-anchor="middle" x="852" y="-62.6" font-family="Times,serif" font-size="14.00">HttpClientModule</text>
</g>
<!-- HttpClientModule&#45;&gt;AppModule -->
<g id="edge9" class="edge">
<title>HttpClientModule&#45;&gt;AppModule</title>
<path fill="none" stroke="black" d="M852,-84.91C852,-104.14 852,-131.8 852,-131.8 852,-131.8 1246.04,-131.8 1246.04,-131.8"/>
<polygon fill="black" stroke="black" points="1246.04,-135.3 1256.04,-131.8 1246.04,-128.3 1246.04,-135.3"/>
</g>
<!-- MatSnackBarModule -->
<g id="node11" class="node">
<title>MatSnackBarModule</title>
<polygon fill="#8dd3c7" stroke="black" points="774.03,-84.8 771.03,-88.8 750.03,-88.8 747.03,-84.8 637.97,-84.8 637.97,-48.8 774.03,-48.8 774.03,-84.8"/>
<text text-anchor="middle" x="706" y="-62.6" font-family="Times,serif" font-size="14.00">MatSnackBarModule</text>
</g>
<!-- MatSnackBarModule&#45;&gt;AppModule -->
<g id="edge10" class="edge">
<title>MatSnackBarModule&#45;&gt;AppModule</title>
<path fill="none" stroke="black" d="M706,-85.08C706,-106.12 706,-137.8 706,-137.8 706,-137.8 1245.9,-137.8 1245.9,-137.8"/>
<polygon fill="black" stroke="black" points="1245.9,-141.3 1255.9,-137.8 1245.9,-134.3 1245.9,-141.3"/>
</g>
<!-- { provide: HTTP_INTERCEPTORS, useClass: AuthInterceptor, multi: &#160;} -->
<g id="node13" class="node">
<title>{ provide: HTTP_INTERCEPTORS, useClass: AuthInterceptor, multi: &#160;}</title>
<ellipse fill="#fdb462" stroke="black" cx="319" cy="-66.8" rx="295.47" ry="18"/>
<text text-anchor="middle" x="319" y="-62.6" font-family="Times,serif" font-size="14.00">{ provide: HTTP_INTERCEPTORS, useClass: AuthInterceptor, multi: &#160;}</text>
</g>
<!-- { provide: HTTP_INTERCEPTORS, useClass: AuthInterceptor, multi: &#160;}&#45;&gt;AppModule -->
<g id="edge12" class="edge">
<title>{ provide: HTTP_INTERCEPTORS, useClass: AuthInterceptor, multi: &#160;}&#45;&gt;AppModule</title>
<path fill="none" stroke="black" d="M319,-85.05C319,-107.82 319,-143.8 319,-143.8 319,-143.8 1246.25,-143.8 1246.25,-143.8"/>
<polygon fill="black" stroke="black" points="1246.25,-147.3 1256.25,-143.8 1246.25,-140.3 1246.25,-147.3"/>
</g>
</g>
</svg>
